<svg width="24" height="20" viewBox="0 0 24 20" fill="none" xmlns="http://www.w3.org/2000/svg">
<path d="M17 19V17C17 14.7909 15.2091 13 13 13H5C2.79086 13 1 14.7909 1 17V19" stroke="#278FB4" stroke-width="2" stroke-linecap="round" stroke-linejoin="round"/>
<path fill-rule="evenodd" clip-rule="evenodd" d="M9 9.00003C11.2091 9.00003 13 7.20917 13 5.00003C13 2.79089 11.2091 1.00003 9 1.00003C6.79086 1.00003 5 2.79089 5 5.00003C5 7.20917 6.79086 9.00003 9 9.00003Z" stroke="#278FB4" stroke-width="2" stroke-linecap="round" stroke-linejoin="round"/>
<path d="M23 19V17C22.9986 15.1772 21.765 13.5858 20 13.13" stroke="#278FB4" stroke-width="2" stroke-linecap="round" stroke-linejoin="round"/>
<path d="M16 1.13004C17.7699 1.58321 19.0078 3.17803 19.0078 5.00504C19.0078 6.83204 17.7699 8.42687 16 8.88004" stroke="#278FB4" stroke-width="2" stroke-linecap="round" stroke-linejoin="round"/>
</svg>
