<svg width="26.880005" height="21.000000" viewBox="0 0 26.88 21" fill="none" xmlns="http://www.w3.org/2000/svg" xmlns:xlink="http://www.w3.org/1999/xlink">
	<desc>
			Created with Pixso.
	</desc>
	<defs/>
	<g opacity="0.200000" style="mix-blend-mode:normal">
		<path id="Shape" d="M11.76 11.76L11.76 0L0 0L0 11.92C0 19.99 7.56 21 7.56 21L8.56 18.64C8.56 18.64 5.2 18.14 4.53 15.45C3.86 13.43 5.2 11.76 5.2 11.76L11.76 11.76Z" fill="#444444" fill-opacity="1.000000" fill-rule="nonzero"/>
		<path id="Shape" d="M26.88 11.76L26.88 0L15.12 0L15.12 11.92C15.12 19.99 22.68 21 22.68 21L23.68 18.64C23.68 18.64 20.32 18.14 19.65 15.45C18.98 13.43 20.32 11.76 20.32 11.76L26.88 11.76Z" fill="#444444" fill-opacity="1.000000" fill-rule="nonzero"/>
	</g>
</svg>
